# xmcd CD database file
#
# Track frame offsets:
#	150
#	13728
#	28685
#	46636
#	65212
#	109196
#	136312
#	145327
#	157349
#	173415
#	190190
#	215993
#	232045
#	244290
#	271521
#	291278
#	310757
#
# Disc length: 4352 seconds
#
# Revision: 0
# Processed by: cddbd v1.5PL3 Copyright (c) Steve Scherf et al.
# Submitted via: CDex 1.51
#
DISCID=0010fe11
DTITLE=Blues Isn't A Feeling It's A Lifestyle - Blues Isn't A Feeling It's A Lifestyle
DYEAR=1900
DGENRE=Blues
TTITLE0=Ted Hawkins/ Sombody Have Mercy
TTITLE1=Martha Davis/ Daddy-O
TTITLE2=Johnny Adams/ Reconsider Me
TTITLE3=Ronnie Earl/ Riding in The Moonlight
TTITLE4=Ronnie Earl/ Track 4
TTITLE5=Ronnie Earl/ Baby Doll Blues
TTITLE6=Big Joe Turner/ I Need A Girl
TTITLE7=Johnny Adams/ The Little Boy
TTITLE8=Johnny Adams/ My Baby Quit me
TTITLE9=Johnny Adams/ There is always one more time
TTITLE10=Ronnie Earl/ Bluebird Blues
TTITLE11=Ronnie Earl/ I Want to Shour About it
TTITLE12=Johnny Adams/ The Bells
TTITLE13=Ronnie Earl/ Got My Mojo Working
TTITLE14=Ronnie Earl/ I Smell Trouble
TTITLE15=Ronnie Earl/ Backstroke
TTITLE16=Charlie Musselwhite/ Hanging on
EXTD=
EXTT0=
EXTT1=
EXTT2=
EXTT3=
EXTT4=
EXTT5=
EXTT6=
EXTT7=
EXTT8=
EXTT9=
EXTT10=
EXTT11=
EXTT12=
EXTT13=
EXTT14=
EXTT15=
EXTT16=
PLAYORDER=
